{"title":"Witches of East End S01E08 HDTV x264 AAC E-Subs [GWC].mp4","uid":9246390,"size":115403822,"categoryP":"video","categoryS":"tv_shows","magnet":"?xt=urn:btih:cc059706aeca7acc05ea8c554221d6002424d00f&amp;dn=Witches+of+East+End+S01E08+HDTV+x264+AAC+E-Subs+%5BGWC%5D.mp4&amp;tr=udp%3A%2F%2Ftracker.openbittorrent.com%3A80&amp;tr=udp%3A%2F%2Fopen.demonii.com%3A1337&amp;tr=udp%3A%2F%2Ftracker.coppersurfer.tk%3A6969&amp;tr=udp%3A%2F%2Fexodus.desync.com%3A6969","seeders":1,"leechers":0,"uploader":"canc232","files":1,"time":1385337703,"description":"Witches of East End S01E08 HDTV x264 AAC E-Subs [GWC] \n\nSCREENS :\n &lt;a href=&quot;\nhttp://s20.postimg.org/loi9xmigt/Witches_East_End_S01_E08_HDTV_16_22_02.jpg&quot; rel=&quot;nofollow&quot; target=&quot;_NEW&quot;&gt;\nhttp://s20.postimg.org/loi9xmigt/Witches_East_End_S01_E08_HDTV_16_22_02.jpg&lt;/a&gt; &lt;a href=&quot;\nhttp://s20.postimg.org/4y2aujunx/Witches_East_End_S01_E08_HDTV_16_22_37.jpg&quot; rel=&quot;nofollow&quot; target=&quot;_NEW&quot;&gt;\nhttp://s20.postimg.org/4y2aujunx/Witches_East_End_S01_E08_HDTV_16_22_37.jpg&lt;/a&gt; &lt;a href=&quot;\nhttp://s20.postimg.org/f9j90ybr1/Witches_East_End_S01_E08_HDTV_16_22_47.jpg&quot; rel=&quot;nofollow&quot; target=&quot;_NEW&quot;&gt;\nhttp://s20.postimg.org/f9j90ybr1/Witches_East_End_S01_E08_HDTV_16_22_47.jpg&lt;/a&gt;\n\n\nMEDIA INFO :\n\nGeneral \nFormat : MPEG-4 \nFile size : 110 MiB \nDuration : 40mn 41s \nOverall bit rate mode : Variable \nOverall bit rate : 378 Kbps \n\nVideo \nFormat : AVC \nFormat profile : &lt;a class=&quot;__cf_email__&quot; href=&quot;/cdn-cgi/l/email-protection&quot; data-cfemail=&quot;5018393738101c637e60&quot;&gt;[email&amp;#160;protected]&lt;/a&gt;&lt;script cf-hash='f9e31' type=&quot;text/javascript&quot;&gt;\n/* &lt;![CDATA[ */!function(){try{var t=&quot;currentScript&quot;in document?document.currentScript:function(){for(var t=document.getElementsByTagName(&quot;script&quot;),e=t.length;e--;)if(t[e].getAttribute(&quot;cf-hash&quot;))return t[e]}();if(t&amp;&amp;t.previousSibling){var e,r,n,i,c=t.previousSibling,a=c.getAttribute(&quot;data-cfemail&quot;);if(a){for(e=&quot;&quot;,r=parseInt(a.substr(0,2),16),n=2;a.length-n;n+=2)i=parseInt(a.substr(n,2),16)^r,e+=String.fromCharCode(i);e=document.createTextNode(e),c.parentNode.replaceChild(e,c)}}}catch(u){}}();/* ]]&gt; */&lt;/script&gt; \nFormat settings, ReFrames : 4 frames \nDuration : 40mn 41s \nBit rate : 315 Kbps\nWidth : 720 pixels \nHeight : 404 pixels \nDisplay aspect ratio : 16:9 \nFrame rate : 23.976 fps\nStream size : 91.6 MiB (83%) \nTitle : Witches of East End S01E08 HDTV x264 AAC E-Subs [GWC] \nWriting library : x264 core\n\nAudio\nFormat : AAC\nFormat profile : HE-AAC / LC \nDuration : 40mn 41s \nBit rate mode : Variable \nChannel(s) : 2 channels \nSampling rate : 48.0 KHz / 24.0 KHz \nStream size : 17.5 MiB (16%) \nLanguage : English\n\nText \nFormat : Timed Text \nDuration : 40mn 19s \nStream size : 25.4 KiB (0%) \nTitle : English Subtitle by Reef \nLanguage : English","torrent":{"xt":"urn:btih:cc059706aeca7acc05ea8c554221d6002424d00f","amp;dn":"Witches+of+East+End+S01E08+HDTV+x264+AAC+E-Subs+%5BGWC%5D.mp4","amp;tr":["udp%3A%2F%2Ftracker.openbittorrent.com%3A80","udp%3A%2F%2Fopen.demonii.com%3A1337","udp%3A%2F%2Ftracker.coppersurfer.tk%3A6969","udp%3A%2F%2Fexodus.desync.com%3A6969"],"infoHash":"cc059706aeca7acc05ea8c554221d6002424d00f","infoHashBuffer":{"type":"Buffer","data":[204,5,151,6,174,202,122,204,5,234,140,85,66,33,214,0,36,36,208,15]},"announce":[],"urlList":[]}}